<?xml version="1.0" encoding="UTF-8"?>
<svg width="55px" height="17px" viewBox="0 0 55 17" version="1.1" xmlns="http://www.w3.org/2000/svg" xmlns:xlink="http://www.w3.org/1999/xlink">
    <!-- Generator: Sketch 53 (72520) - https://sketchapp.com -->
    <title>logo</title>
    <desc>Created with Sketch.</desc>
    <defs>
        <polygon id="path-1" points="0 0.0814059266 9.84574834 0.0814059266 9.84574834 12.8611213 0 12.8611213"></polygon>
        <polygon id="path-3" points="0.5 18.2957746 55.5 18.2957746 55.5 0.295774648 0.5 0.295774648"></polygon>
    </defs>
    <g id="final" stroke="none" stroke-width="1" fill="none" fill-rule="evenodd">
        <g id="-Large-Desktop-(1200px-or-more)" transform="translate(-167.000000, -33.000000)">
            <g id="top-nav">
                <g id="logo" transform="translate(166.500000, 31.704225)">
                    <path d="M37.0520194,11.8277492 C37.0038744,11.4768397 36.9912406,11.1172272 36.9010968,10.7764985 C36.542741,9.41965936 35.6928624,8.47267989 34.2357081,8.21471132 C32.804675,7.96134054 31.5527345,8.34903232 30.694661,9.55545822 C30.0455573,10.4681185 29.9130732,11.4929319 30.0832879,12.5716051 C30.3919622,14.529112 32.2810556,15.788084 34.2888042,15.364431 C35.9489528,15.0140141 37.034776,13.613496 37.0520194,11.8277492 M40.4662164,18.0515078 L37.0562876,18.0515078 L37.0562876,16.414368 C36.9263644,16.5179823 36.8635369,16.5564067 36.8159041,16.6076391 C35.4743319,18.056434 33.74999,18.4423195 31.8293121,18.2497051 C29.0036109,17.9662846 26.9132304,15.7102501 26.5722888,12.9675072 C26.2779556,10.5984986 26.8582564,8.51717988 28.7591299,6.88792199 C30.0966046,5.74175991 31.7125349,5.29610319 33.4706808,5.29577478 C35.5352814,5.29544637 37.3533524,5.91384843 38.7773857,7.40385913 C39.9135733,8.59238651 40.4486315,10.0326426 40.4785087,11.6259393 C40.5179466,13.7038096 40.4909718,15.7828294 40.4913132,17.8613565 C40.4913132,17.9137384 40.4778258,17.9661203 40.4662164,18.0515078" id="Fill-1" fill="#231F20"></path>
                    <path d="M24.4507121,18.2957746 L21.1467952,18.2957746 L21.1467952,17.8363669 C21.1466292,15.5389936 21.1486222,13.2416204 21.1454666,10.9440799 C21.1446362,10.3091342 21.03419,9.69859667 20.6767764,9.15693684 C20.0182518,8.15887845 18.826098,7.86330605 17.696558,8.1735902 C16.5249987,8.4954097 15.8639828,9.45334513 15.856343,10.789105 C15.8432223,13.11423 15.8521909,15.4395221 15.8516926,17.7646471 L15.8516926,18.2840721 L12.5261848,18.2840721 C12.5197075,18.1359516 12.5085798,18.0003694 12.5084138,17.8651216 C12.5074172,15.5538725 12.536482,13.2421219 12.5007739,10.9312071 C12.4526094,7.80930725 14.6577119,5.61441469 17.7156578,5.33539301 C19.276685,5.19295654 20.7749323,5.41647481 22.1233715,6.30235611 C23.5400714,7.23304138 24.3754759,8.56913562 24.4394184,10.2399221 C24.5398994,12.867641 24.4830986,15.5015455 24.4914028,18.132608 C24.4915689,18.1720622 24.4724692,18.2111821 24.4507121,18.2957746" id="Fill-3" fill="#231F20"></path>
                    <path d="M53.2587558,5.29577465 C54.0670011,6.05967709 54.7761544,6.72959579 55.5,7.41366083 C54.0382693,8.8608153 52.5961285,10.288295 51.1543142,11.7154494 C52.6433074,13.1970755 54.0821833,14.6284576 55.4843281,16.0237421 C54.7492183,16.791547 54.0697763,17.5014657 53.4109038,18.189921 C51.9517851,16.7593519 50.5098075,15.3453681 49.025222,13.8897584 C47.5886316,15.3609779 46.1618362,16.8222787 44.7231236,18.2957746 C43.9620572,17.5034169 43.287023,16.8008153 42.6191717,16.1053681 C44.0015634,14.7302462 45.4399495,13.2993519 46.8878041,11.8588641 C45.3855876,10.3639047 43.9392023,8.92406733 42.5,7.4913844 C43.2613929,6.74244131 43.9663017,6.04894538 44.6646805,5.36195351 C46.075804,6.76357953 47.5164756,8.19463644 48.9261299,9.59479904 C50.4074504,8.12504294 51.8567742,6.68699416 53.2587558,5.29577465" id="Fill-5" fill="#231F20"></path>
                    <g id="Group-9" transform="translate(0.500000, 5.295775)">
                        <mask id="mask-2" fill="white">
                            <use xlink:href="#path-1"></use>
                        </mask>
                        <g id="Clip-8"></g>
                        <path d="M9.60198305,2.04790625 C8.96316949,2.61389375 8.34350847,3.16330625 7.70791525,3.72653125 C7.03689831,3.13584375 6.3050339,2.68133125 5.41588136,2.64590625 C4.96367797,2.62770625 4.45469492,2.73625625 4.05622034,2.94003125 C3.46028814,3.24488125 3.43249153,3.92250625 3.97181356,4.31998125 C4.333,4.58631875 4.76740678,4.77189375 5.18910169,4.94966875 C6.06452542,5.31870625 6.98350847,5.60259375 7.83011864,6.02233125 C9.57672881,6.88780625 10.263339,8.64296875 9.59232203,10.3503563 C9.26774576,11.1763438 8.64113559,11.7512687 7.85401695,12.1612563 C5.63232203,13.3182562 2.47249153,13.0103188 0.529440678,11.4623438 C0.357237288,11.3251938 0.202322034,11.1680563 -5.08474576e-05,10.9842688 C0.661644068,10.3952063 1.29859322,9.82824375 1.95571186,9.24324375 C2.19028814,9.42670625 2.40757627,9.61374375 2.64249153,9.77705625 C3.43791525,10.3308563 4.31808475,10.5424313 5.28045763,10.3019313 C5.75316949,10.1836313 6.13350847,9.92834375 6.21876271,9.41971875 C6.29994915,8.93449375 6.01486441,8.60689375 5.62181356,8.39076875 C5.14723729,8.13011875 4.63130508,7.94031875 4.14384746,7.69998125 C3.36927119,7.31843125 2.55232203,6.99050625 1.84367797,6.51616875 C-0.184966102,5.15848125 -0.0798813559,1.84981875 2.28062712,0.65885625 C4.55774576,-0.49018125 8.06283051,0.12796875 9.60198305,2.04790625" id="Fill-7" fill="#231F20" mask="url(#mask-2)"></path>
                    </g>
                    <mask id="mask-4" fill="white">
                        <use xlink:href="#path-3"></use>
                    </mask>
                    <g id="Clip-11"></g>
                    <polygon id="Fill-10" fill="#231F20" mask="url(#mask-4)" points="29.5 3.29577465 38.5 3.29577465 38.5 1.29577465 29.5 1.29577465"></polygon>
                </g>
            </g>
        </g>
    </g>
</svg>